<svg preserveAspectRatio="none" overflow="visible" style="display: block;" width="1200" height="344" viewBox="0 0 1200 344" fill="none" xmlns="http://www.w3.org/2000/svg">
<g id="Subtle editable red waves" opacity="0.18">
<path id="Vector" d="M567.073 146.2C685.976 215 804.878 326.8 1106.71 335.4" stroke="#FF2035" stroke-width="0.8"/>
<path id="Vector_2" d="M567.073 154.8C685.976 218.44 804.878 329.38 1106.71 332.82" stroke="#FF2035" stroke-width="0.8"/>
<path id="Vector_3" d="M567.073 163.4C685.976 221.88 804.878 331.96 1106.71 330.24" stroke="#FF2035" stroke-width="0.8"/>
<path id="Vector_4" d="M567.073 172C685.976 225.32 804.878 334.54 1106.71 327.66" stroke="#FF2035" stroke-width="0.8"/>
<path id="Vector_5" d="M567.073 180.6C685.976 228.76 804.878 337.12 1106.71 325.08" stroke="#FF2035" stroke-width="0.8"/>
<path id="Vector_6" d="M567.073 189.2C685.976 232.2 804.878 339.7 1106.71 322.5" stroke="#FF2035" stroke-width="0.8"/>
<path id="Vector_7" d="M567.073 197.8C685.976 235.64 804.878 342.28 1106.71 319.92" stroke="#FF2035" stroke-width="0.8"/>
<path id="Vector_8" d="M567.073 206.4C685.976 239.08 804.878 344.86 1106.71 317.34" stroke="#FF2035" stroke-width="0.8"/>
<path id="Vector_9" d="M567.073 215C685.976 242.52 804.878 347.44 1106.71 314.76" stroke="#FF2035" stroke-width="0.8"/>
<path id="Vector_10" d="M567.073 223.6C685.976 245.96 804.878 350.02 1106.71 312.18" stroke="#FF2035" stroke-width="0.8"/>
<path id="Vector_11" d="M567.073 232.2C685.976 249.4 804.878 352.6 1106.71 309.6" stroke="#FF2035" stroke-width="0.8"/>
<path id="Vector_12" d="M567.073 240.8C685.976 252.84 804.878 355.18 1106.71 307.02" stroke="#FF2035" stroke-width="0.8"/>
<path id="Vector_13" d="M567.073 249.4C685.976 256.28 804.878 357.76 1106.71 304.44" stroke="#FF2035" stroke-width="0.8"/>
</g>
</svg>
